<svg xmlns="http://www.w3.org/2000/svg" viewBox="0 0 720 220" role="img" aria-label="Pengu Heat Card logo">
  <defs>
    <linearGradient id="bg" x1="0" x2="1" y1="0" y2="1">
      <stop offset="0%" stop-color="#eff6ff"/>
      <stop offset="100%" stop-color="#f8fafc"/>
    </linearGradient>
    <linearGradient id="accent" x1="0" x2="1" y1="0" y2="1">
      <stop offset="0%" stop-color="#2563eb"/>
      <stop offset="100%" stop-color="#ef4444"/>
    </linearGradient>
  </defs>
  <rect width="720" height="220" rx="32" fill="url(#bg)"/>
  <g transform="translate(28 18)">
    <rect x="0" y="0" width="176" height="176" rx="28" fill="#ffffff" stroke="#dbeafe"/>
    <ellipse cx="88" cy="108" rx="46" ry="52" fill="#0f172a"/>
    <ellipse cx="88" cy="118" rx="32" ry="38" fill="#f8fafc"/>
    <ellipse cx="74" cy="104" rx="6" ry="8" fill="#0f172a"/>
    <ellipse cx="102" cy="104" rx="6" ry="8" fill="#0f172a"/>
    <polygon points="88,114 106,124 88,132 70,124" fill="#f59e0b"/>
    <path d="M120 48c0-18 14-32 32-32v0c18 0 32 14 32 32v54c0 18-14 32-32 32v0c-18 0-32-14-32-32z" fill="#dbeafe" stroke="#93c5fd" stroke-width="4"/>
    <rect x="148" y="34" width="8" height="68" rx="4" fill="url(#accent)"/>
    <circle cx="152" cy="112" r="14" fill="#ef4444"/>
    <path d="M28 152c20-22 38-22 58 0" fill="none" stroke="#2563eb" stroke-width="8" stroke-linecap="round"/>
  </g>
  <g transform="translate(238 46)">
    <text x="0" y="52" font-size="44" font-family="Inter, Arial, sans-serif" font-weight="800" fill="#0f172a">Pengu Heat Card</text>
    <text x="0" y="92" font-size="22" font-family="Inter, Arial, sans-serif" fill="#475569">Solar thermal · Heating circuit · Domestic hot water</text>
    <text x="0" y="134" font-size="18" font-family="Inter, Arial, sans-serif" fill="#64748b">Full GUI editor for Lovelace and HACS</text>
  </g>
</svg>
